<?xml version="1.0" standalone="no"?><!DOCTYPE svg PUBLIC "-//W3C//DTD SVG 1.1//EN" "http://www.w3.org/Graphics/SVG/1.1/DTD/svg11.dtd"><svg width="100%" height="100%" viewBox="0 0 242 200" version="1.1" xmlns="http://www.w3.org/2000/svg" xmlns:xlink="http://www.w3.org/1999/xlink" xml:space="preserve" style="fill-rule:evenodd;clip-rule:evenodd;stroke-linejoin:round;stroke-miterlimit:1.41421;"><g id="Layer11"><path d="M178.008,102.617c0.718,-3.045 1.204,-6.161 1.204,-9.428c0,-22.345 -18.107,-40.461 -40.462,-40.461c-15.719,0 -29.193,9.073 -35.889,22.152c-2.974,-1.224 -6.211,-1.922 -9.63,-1.922c-13.666,0 -24.732,10.895 -25.198,24.439c-12.057,5.28 -20.321,14.981 -20.321,26.138c0,16.701 18.217,30.346 40.461,30.346l60.693,0c22.264,0 40.461,-13.645 40.461,-30.346c0,-8.092 -4.35,-15.466 -11.319,-20.918" style="fill:url(#_Linear1);fill-rule:nonzero;"/><path d="M88.171,155.418l-0.266,-0.001l-0.267,-0.002l-0.267,-0.003l-0.267,-0.004l-0.266,-0.006l-0.266,-0.007l-0.266,-0.008l-0.265,-0.01l-0.265,-0.011l-0.264,-0.012l-0.264,-0.013l-0.263,-0.015l-0.263,-0.015l-0.263,-0.017l-0.262,-0.019l-0.262,-0.019l-0.261,-0.021l-0.261,-0.022l-0.26,-0.023l-0.26,-0.024l-0.259,-0.026l-0.259,-0.026l-0.259,-0.028l-0.257,-0.029l-0.258,-0.031l-0.257,-0.031l-0.256,-0.033l-0.256,-0.034l-0.256,-0.035l-0.254,-0.036l-0.255,-0.038l-0.254,-0.038l-0.253,-0.04l-0.253,-0.041l-0.252,-0.042l-0.252,-0.043l-0.251,-0.044l-0.25,-0.046l-0.25,-0.047l-0.25,-0.047l-0.248,-0.049l-0.249,-0.05l-0.247,-0.051l-0.247,-0.053l-0.247,-0.053l-0.246,-0.055l-0.245,-0.055l-0.245,-0.057l-0.244,-0.058l-0.243,-0.059l-0.243,-0.06l-0.242,-0.061l-0.242,-0.062l-0.241,-0.064l-0.24,-0.064l-0.24,-0.065l-0.239,-0.067l-0.238,-0.068l-0.238,-0.068l-0.237,-0.07l-0.236,-0.071l-0.235,-0.072l-0.235,-0.073l-0.235,-0.074l-0.233,-0.075l-0.233,-0.076l-0.232,-0.077l-0.232,-0.078l-0.23,-0.079l-0.23,-0.08l-0.229,-0.081l-0.229,-0.083l-0.228,-0.083l-0.227,-0.084l-0.226,-0.085l-0.226,-0.087l-0.224,-0.087l-0.224,-0.088l-0.224,-0.089l-0.222,-0.091l-0.222,-0.091l-0.221,-0.092l-0.22,-0.093l-0.219,-0.095l-0.219,-0.095l-0.218,-0.096l-0.217,-0.097l-0.216,-0.098l-0.215,-0.099l-0.215,-0.1l-0.213,-0.101l-0.213,-0.102l-0.212,-0.103l-0.211,-0.103l-0.21,-0.105l-0.21,-0.106l-0.208,-0.106l-0.208,-0.108l-0.207,-0.108l-0.206,-0.109l-0.205,-0.111l-0.204,-0.111l-0.204,-0.112l-0.202,-0.113l-0.202,-0.114l-0.2,-0.115l-0.2,-0.115l-0.199,-0.117l-0.198,-0.117l-0.197,-0.119l-0.196,-0.119l-0.195,-0.12l-0.194,-0.121l-0.193,-0.122l-0.192,-0.123l-0.192,-0.123l-0.19,-0.125l-0.189,-0.125l-0.189,-0.126l-0.187,-0.127l-0.187,-0.128l-0.185,-0.129l-0.185,-0.129l-0.183,-0.131l-0.183,-0.131l-0.181,-0.132l-0.18,-0.133l-0.18,-0.133l-0.178,-0.135l-0.178,-0.135l-0.176,-0.137l-0.175,-0.137l-0.174,-0.137l-0.174,-0.139l-0.172,-0.139l-0.171,-0.14l-0.17,-0.141l-0.169,-0.142l-0.168,-0.143l-0.166,-0.143l-0.166,-0.144l-0.165,-0.145l-0.163,-0.146l-0.163,-0.146l-0.161,-0.148l-0.16,-0.148l-0.159,-0.148l-0.158,-0.15l-0.157,-0.15l-0.155,-0.151l-0.155,-0.152l-0.153,-0.152l-0.152,-0.154l-0.151,-0.154l-0.15,-0.154l-0.149,-0.156l-0.147,-0.156l-0.147,-0.157l-0.145,-0.158l-0.144,-0.158l-0.142,-0.159l-0.142,-0.16l-0.14,-0.16l-0.139,-0.162l-0.138,-0.161l-0.137,-0.163l-0.135,-0.163l-0.134,-0.164l-0.133,-0.165l-0.132,-0.165l-0.13,-0.166l-0.129,-0.167l-0.128,-0.167l-0.127,-0.169l-0.125,-0.168l-0.124,-0.17l-0.123,-0.17l-0.121,-0.17l-0.12,-0.172l-0.119,-0.172l-0.118,-0.172l-0.116,-0.174l-0.115,-0.174l-0.113,-0.174l-0.112,-0.175l-0.111,-0.176l-0.11,-0.177l-0.108,-0.177l-0.106,-0.177l-0.106,-0.179l-0.104,-0.179l-0.102,-0.179l-0.101,-0.18l-0.1,-0.181l-0.099,-0.181l-0.096,-0.182l-0.096,-0.183l-0.094,-0.183l-0.093,-0.183l-0.091,-0.184l-0.09,-0.185l-0.088,-0.186l-0.087,-0.185l-0.086,-0.187l-0.084,-0.187l-0.082,-0.187l-0.081,-0.189l-0.08,-0.188l-0.078,-0.189l-0.076,-0.19l-0.075,-0.19l-0.074,-0.191l-0.072,-0.191l-0.07,-0.192l-0.069,-0.192l-0.068,-0.193l-0.065,-0.193l-0.065,-0.194l-0.063,-0.194l-0.061,-0.195l-0.059,-0.195l-0.058,-0.196l-0.057,-0.196l-0.055,-0.197l-0.053,-0.197l-0.052,-0.198l-0.05,-0.198l-0.048,-0.198l-0.047,-0.199l-0.045,-0.199l-0.044,-0.2l-0.042,-0.2l-0.04,-0.201l-0.039,-0.201l-0.037,-0.201l-0.035,-0.202l-0.034,-0.202l-0.032,-0.203l-0.03,-0.203l-0.029,-0.203l-0.027,-0.204l-0.025,-0.204l-0.023,-0.204l-0.022,-0.205l-0.02,-0.205l-0.019,-0.206l-0.016,-0.206l-0.015,-0.206l-0.014,-0.207l-0.011,-0.206l-0.01,-0.208l-0.008,-0.207l-0.006,-0.208l-0.004,-0.208l-0.003,-0.208l-0.001,-0.208l0.001,-0.141l0.001,-0.139l0.002,-0.139l0.003,-0.139l0.003,-0.139l0.005,-0.139l0.005,-0.139l0.006,-0.141l0.014,-0.274l0.018,-0.277l0.021,-0.275l0.023,-0.275l0.027,-0.274l0.031,-0.274l0.033,-0.273l0.036,-0.272l0.039,-0.271l0.043,-0.271l0.045,-0.27l0.049,-0.269l0.051,-0.269l0.055,-0.268l0.057,-0.267l0.06,-0.266l0.064,-0.266l0.066,-0.264l0.069,-0.264l0.072,-0.263l0.075,-0.262l0.078,-0.261l0.081,-0.261l0.083,-0.259l0.086,-0.259l0.09,-0.258l0.091,-0.257l0.095,-0.255l0.098,-0.255l0.1,-0.254l0.103,-0.253l0.105,-0.252l0.109,-0.252l0.11,-0.25l0.114,-0.249l0.116,-0.248l0.119,-0.247l0.122,-0.246l0.124,-0.245l0.126,-0.244l0.13,-0.243l0.131,-0.242l0.135,-0.241l0.137,-0.239l0.139,-0.239l0.142,-0.237l0.144,-0.237l0.147,-0.235l0.149,-0.234l0.151,-0.233l0.154,-0.232l0.157,-0.231l0.158,-0.23l0.161,-0.228l0.164,-0.228l0.166,-0.226l0.168,-0.225l0.17,-0.223l0.173,-0.223l0.175,-0.221l0.177,-0.22l0.179,-0.219l0.182,-0.218l0.184,-0.216l0.186,-0.215l0.188,-0.214l0.19,-0.213l0.193,-0.211l0.194,-0.21l0.197,-0.209l0.199,-0.208l0.201,-0.206l0.203,-0.205l0.205,-0.204l0.207,-0.202l0.21,-0.201l0.211,-0.2l0.213,-0.198l0.215,-0.197l0.218,-0.195l0.219,-0.195l0.221,-0.192l0.223,-0.192l0.225,-0.19l0.227,-0.189l0.229,-0.187l0.23,-0.186l0.233,-0.184l0.234,-0.184l0.237,-0.181l0.238,-0.18l0.24,-0.179l0.241,-0.177l0.244,-0.176l0.245,-0.175l0.247,-0.173l0.249,-0.171l0.251,-0.17l0.252,-0.169l0.254,-0.167l0.256,-0.165l0.257,-0.164l0.259,-0.162l0.261,-0.161l0.262,-0.16l0.264,-0.157l0.266,-0.157l0.267,-0.154l0.269,-0.153l0.27,-0.152l0.272,-0.15l0.274,-0.148l0.275,-0.147l0.276,-0.145l0.278,-0.144l0.28,-0.142l0.281,-0.14l0.283,-0.139l0.284,-0.137l0.285,-0.135l0.287,-0.134l0,0l0.003,-0.04l0.013,-0.167l0.013,-0.166l0.014,-0.166l0.016,-0.166l0.016,-0.165l0.018,-0.165l0.018,-0.165l0.02,-0.165l0.02,-0.164l0.021,-0.164l0.023,-0.163l0.023,-0.164l0.024,-0.163l0.026,-0.163l0.026,-0.162l0.027,-0.162l0.028,-0.162l0.029,-0.161l0.031,-0.161l0.031,-0.161l0.032,-0.161l0.033,-0.16l0.033,-0.159l0.035,-0.16l0.036,-0.159l0.037,-0.159l0.037,-0.158l0.039,-0.158l0.039,-0.158l0.041,-0.157l0.041,-0.157l0.043,-0.156l0.043,-0.157l0.044,-0.155l0.045,-0.156l0.046,-0.155l0.047,-0.154l0.047,-0.155l0.049,-0.153l0.049,-0.154l0.051,-0.153l0.051,-0.153l0.052,-0.152l0.053,-0.152l0.054,-0.151l0.055,-0.151l0.056,-0.151l0.056,-0.15l0.057,-0.149l0.059,-0.15l0.059,-0.148l0.06,-0.149l0.061,-0.148l0.061,-0.147l0.063,-0.148l0.063,-0.146l0.064,-0.146l0.065,-0.146l0.066,-0.145l0.067,-0.145l0.068,-0.144l0.068,-0.144l0.069,-0.144l0.07,-0.143l0.071,-0.142l0.072,-0.142l0.072,-0.142l0.073,-0.141l0.074,-0.14l0.075,-0.14l0.076,-0.14l0.076,-0.139l0.078,-0.138l0.078,-0.138l0.078,-0.138l0.08,-0.137l0.08,-0.136l0.082,-0.136l0.081,-0.135l0.083,-0.135l0.084,-0.135l0.084,-0.134l0.085,-0.133l0.086,-0.133l0.086,-0.132l0.087,-0.132l0.088,-0.131l0.089,-0.13l0.09,-0.13l0.09,-0.13l0.091,-0.129l0.092,-0.128l0.092,-0.128l0.093,-0.127l0.094,-0.127l0.095,-0.126l0.095,-0.126l0.096,-0.125l0.097,-0.124l0.097,-0.124l0.099,-0.123l0.098,-0.122l0.1,-0.122l0.1,-0.122l0.101,-0.121l0.102,-0.12l0.102,-0.119l0.103,-0.119l0.104,-0.119l0.105,-0.118l0.105,-0.117l0.105,-0.116l0.107,-0.116l0.107,-0.115l0.108,-0.115l0.108,-0.114l0.109,-0.113l0.11,-0.113l0.11,-0.112l0.111,-0.111l0.112,-0.111l0.112,-0.11l0.113,-0.11l0.114,-0.108l0.114,-0.109l0.115,-0.107l0.116,-0.107l0.116,-0.106l0.117,-0.105l0.117,-0.105l0.118,-0.104l0.119,-0.104l0.119,-0.102l0.12,-0.102l0.12,-0.102l0.121,-0.1l0.122,-0.1l0.122,-0.099l0.123,-0.099l0.124,-0.098l0.124,-0.097l0.124,-0.096l0.125,-0.096l0.126,-0.095l0.127,-0.094l0.126,-0.094l0.128,-0.092l0.128,-0.092l0.129,-0.092l0.129,-0.09l0.13,-0.09l0.13,-0.089l0.131,-0.088l0.131,-0.088l0.132,-0.087l0.133,-0.086l0.133,-0.085l0.133,-0.085l0.134,-0.083l0.135,-0.083l0.135,-0.083l0.136,-0.081l0.136,-0.081l0.137,-0.079l0.137,-0.079l0.138,-0.079l0.138,-0.077l0.139,-0.077l0.139,-0.076l0.14,-0.075l0.14,-0.074l0.141,-0.074l0.141,-0.072l0.142,-0.072l0.142,-0.071l0.143,-0.07l0.143,-0.07l0.144,-0.068l0.144,-0.068l0.145,-0.067l0.145,-0.066l0.145,-0.065l0.146,-0.064l0.147,-0.064l0.147,-0.062l0.147,-0.062l0.148,-0.061l0.148,-0.06l0.149,-0.059l0.149,-0.059l0.15,-0.057l0.15,-0.057l0.15,-0.055l0.151,-0.055l0.151,-0.054l0.152,-0.053l0.152,-0.052l0.153,-0.052l0.153,-0.05l0.153,-0.05l0.154,-0.048l0.154,-0.048l0.155,-0.047l0.155,-0.046l0.155,-0.044l0.156,-0.045l0.156,-0.043l0.157,-0.042l0.157,-0.041l0.157,-0.04l0.158,-0.04l0.158,-0.038l0.158,-0.038l0.159,-0.036l0.159,-0.036l0.159,-0.035l0.16,-0.033l0.16,-0.033l0.161,-0.032l0.161,-0.031l0.161,-0.03l0.162,-0.028l0.162,-0.028l0.162,-0.027l0.162,-0.026l0.163,-0.025l0.163,-0.024l0.164,-0.023l0.164,-0.022l0.164,-0.021l0.164,-0.02l0.165,-0.019l0.165,-0.019l0.165,-0.017l0.166,-0.016l0.166,-0.015l0.166,-0.014l0.166,-0.013l0.167,-0.012l0.167,-0.01l0.168,-0.01l0.167,-0.009l0.168,-0.008l0.168,-0.007l0.168,-0.006l0.169,-0.004l0.169,-0.004l0.169,-0.003l0.169,-0.001l0.17,-0.001l0.17,0.001l0.17,0.001l0.169,0.003l0.169,0.004l0.169,0.005l0.168,0.006l0.169,0.007l0.168,0.008l0.167,0.009l0.168,0.01l0.167,0.011l0.167,0.012l0.166,0.013l0.166,0.015l0.166,0.015l0.166,0.016l0.165,0.018l0.165,0.018l0.164,0.019l0.164,0.021l0.164,0.021l0.164,0.022l0.163,0.024l0.163,0.024l0.163,0.025l0.162,0.027l0.162,0.027l0.162,0.028l0.161,0.03l0.161,0.03l0.16,0.031l0.161,0.032l0.159,0.033l0.16,0.034l0.159,0.035l0.159,0.036l0.158,0.037l0.158,0.037l0.158,0.039l0.157,0.04l0.157,0.04l0.157,0.042l0.156,0.042l0.156,0.043l0.155,0.044l0.155,0.045l0.155,0.046l0.154,0.047l0.154,0.048l0.153,0.048l0.153,0.049l0.153,0.051l0.152,0.051l0.152,0.052l0.151,0.053l0.042,0.014l0.022,-0.04l0.174,-0.311l0.177,-0.309l0.179,-0.308l0.182,-0.306l0.184,-0.305l0.186,-0.302l0.189,-0.302l0.192,-0.299l0.194,-0.298l0.196,-0.296l0.199,-0.294l0.201,-0.293l0.203,-0.29l0.206,-0.289l0.208,-0.288l0.211,-0.285l0.212,-0.284l0.215,-0.282l0.218,-0.279l0.219,-0.278l0.222,-0.277l0.224,-0.274l0.227,-0.272l0.228,-0.271l0.231,-0.268l0.233,-0.267l0.235,-0.264l0.237,-0.263l0.239,-0.261l0.242,-0.258l0.243,-0.257l0.246,-0.254l0.248,-0.253l0.25,-0.25l0.252,-0.248l0.254,-0.246l0.256,-0.244l0.258,-0.242l0.26,-0.24l0.262,-0.238l0.265,-0.235l0.266,-0.233l0.268,-0.231l0.27,-0.229l0.272,-0.227l0.274,-0.224l0.275,-0.222l0.278,-0.22l0.28,-0.217l0.281,-0.216l0.283,-0.212l0.285,-0.211l0.287,-0.208l0.289,-0.206l0.291,-0.203l0.292,-0.201l0.294,-0.199l0.296,-0.196l0.298,-0.193l0.299,-0.191l0.301,-0.189l0.303,-0.186l0.305,-0.184l0.306,-0.181l0.308,-0.179l0.309,-0.176l0.312,-0.173l0.312,-0.171l0.315,-0.169l0.316,-0.165l0.318,-0.163l0.319,-0.161l0.321,-0.157l0.322,-0.156l0.324,-0.152l0.325,-0.15l0.327,-0.146l0.327,-0.144l0.166,-0.072l0.165,-0.07l0.166,-0.07l0.166,-0.069l0.166,-0.068l0.166,-0.068l0.167,-0.067l0.168,-0.066l0.167,-0.065l0.168,-0.065l0.169,-0.064l0.168,-0.063l0.169,-0.063l0.17,-0.062l0.169,-0.061l0.171,-0.061l0.17,-0.06l0.171,-0.059l0.171,-0.058l0.171,-0.058l0.172,-0.056l0.172,-0.057l0.173,-0.055l0.173,-0.055l0.173,-0.054l0.173,-0.053l0.174,-0.052l0.174,-0.052l0.174,-0.051l0.175,-0.05l0.175,-0.05l0.175,-0.049l0.176,-0.048l0.176,-0.047l0.176,-0.046l0.177,-0.046l0.177,-0.045l0.177,-0.044l0.178,-0.044l0.178,-0.043l0.178,-0.042l0.178,-0.041l0.179,-0.04l0.179,-0.04l0.179,-0.039l0.18,-0.038l0.18,-0.037l0.18,-0.037l0.18,-0.035l0.181,-0.035l0.181,-0.034l0.181,-0.034l0.182,-0.032l0.182,-0.032l0.182,-0.031l0.182,-0.031l0.183,-0.029l0.183,-0.029l0.183,-0.027l0.184,-0.028l0.184,-0.026l0.184,-0.025l0.184,-0.025l0.184,-0.024l0.185,-0.023l0.185,-0.022l0.186,-0.021l0.185,-0.021l0.186,-0.02l0.186,-0.018l0.186,-0.019l0.187,-0.017l0.187,-0.016l0.187,-0.016l0.187,-0.015l0.187,-0.014l0.188,-0.013l0.188,-0.012l0.188,-0.012l0.189,-0.01l0.188,-0.01l0.189,-0.009l0.189,-0.008l0.19,-0.007l0.189,-0.007l0.19,-0.005l0.19,-0.005l0.19,-0.004l0.191,-0.003l0.19,-0.002l0.191,-0.001l0.192,-0.001l0.27,0.001l0.272,0.003l0.27,0.004l0.271,0.006l0.27,0.008l0.269,0.009l0.269,0.011l0.269,0.013l0.268,0.014l0.268,0.016l0.267,0.018l0.267,0.02l0.266,0.021l0.266,0.022l0.266,0.025l0.265,0.026l0.264,0.028l0.264,0.029l0.264,0.031l0.263,0.033l0.262,0.034l0.262,0.036l0.262,0.037l0.261,0.039l0.261,0.041l0.259,0.042l0.26,0.044l0.259,0.045l0.258,0.047l0.258,0.049l0.257,0.05l0.257,0.051l0.256,0.054l0.256,0.054l0.255,0.057l0.254,0.058l0.254,0.059l0.253,0.061l0.253,0.062l0.252,0.064l0.251,0.066l0.251,0.067l0.25,0.069l0.25,0.07l0.249,0.071l0.248,0.073l0.248,0.075l0.247,0.076l0.246,0.077l0.246,0.079l0.245,0.08l0.244,0.082l0.244,0.084l0.243,0.084l0.242,0.086l0.242,0.088l0.241,0.089l0.24,0.091l0.24,0.092l0.239,0.093l0.238,0.095l0.237,0.096l0.237,0.097l0.236,0.099l0.235,0.101l0.235,0.101l0.233,0.103l0.233,0.105l0.233,0.106l0.231,0.107l0.231,0.109l0.23,0.11l0.229,0.111l0.228,0.112l0.228,0.114l0.227,0.116l0.226,0.116l0.225,0.118l0.224,0.12l0.224,0.12l0.223,0.122l0.222,0.123l0.221,0.125l0.22,0.126l0.22,0.127l0.218,0.128l0.218,0.13l0.217,0.131l0.216,0.132l0.215,0.133l0.214,0.135l0.214,0.136l0.212,0.137l0.212,0.138l0.211,0.14l0.21,0.141l0.209,0.142l0.208,0.143l0.207,0.145l0.206,0.146l0.206,0.147l0.204,0.148l0.204,0.149l0.202,0.151l0.202,0.151l0.2,0.153l0.2,0.154l0.199,0.156l0.198,0.156l0.197,0.158l0.195,0.158l0.195,0.16l0.194,0.161l0.193,0.163l0.192,0.163l0.191,0.164l0.19,0.166l0.189,0.166l0.188,0.168l0.187,0.169l0.186,0.17l0.185,0.171l0.183,0.172l0.183,0.174l0.182,0.174l0.181,0.175l0.179,0.177l0.179,0.177l0.177,0.179l0.177,0.18l0.175,0.181l0.175,0.181l0.173,0.183l0.172,0.184l0.171,0.185l0.17,0.186l0.169,0.187l0.168,0.188l0.166,0.189l0.166,0.19l0.164,0.191l0.163,0.191l0.163,0.193l0.161,0.194l0.159,0.195l0.159,0.196l0.158,0.197l0.156,0.198l0.155,0.199l0.154,0.199l0.153,0.201l0.152,0.202l0.15,0.202l0.15,0.204l0.148,0.204l0.147,0.206l0.146,0.206l0.144,0.207l0.143,0.208l0.143,0.209l0.14,0.21l0.14,0.211l0.138,0.211l0.138,0.213l0.135,0.213l0.135,0.215l0.133,0.215l0.133,0.216l0.131,0.217l0.129,0.218l0.128,0.218l0.127,0.22l0.126,0.22l0.125,0.221l0.123,0.222l0.122,0.223l0.12,0.223l0.119,0.225l0.118,0.225l0.117,0.226l0.115,0.227l0.114,0.227l0.113,0.229l0.111,0.229l0.11,0.23l0.108,0.231l0.108,0.231l0.105,0.232l0.105,0.233l0.103,0.234l0.102,0.234l0.1,0.236l0.099,0.236l0.097,0.236l0.097,0.238l0.094,0.238l0.094,0.239l0.091,0.239l0.091,0.24l0.089,0.241l0.088,0.242l0.086,0.242l0.084,0.243l0.084,0.244l0.081,0.244l0.081,0.245l0.079,0.246l0.077,0.246l0.076,0.247l0.075,0.248l0.073,0.248l0.071,0.249l0.07,0.249l0.069,0.251l0.067,0.25l0.065,0.252l0.064,0.252l0.063,0.252l0.06,0.253l0.06,0.254l0.058,0.255l0.056,0.254l0.055,0.256l0.053,0.256l0.052,0.257l0.05,0.257l0.048,0.258l0.047,0.258l0.046,0.259l0.043,0.259l0.043,0.26l0.04,0.26l0.039,0.261l0.038,0.262l0.035,0.262l0.035,0.262l0.032,0.263l0.031,0.264l0.029,0.264l0.028,0.264l0.026,0.265l0.025,0.265l0.022,0.266l0.021,0.266l0.02,0.267l0.018,0.267l0.016,0.268l0.014,0.268l0.013,0.269l0.011,0.269l0.009,0.269l0.008,0.27l0.006,0.27l0.004,0.271l0.003,0.271l0.001,0.272l-0.002,0.319l-0.004,0.319l-0.007,0.318l-0.01,0.317l-0.013,0.316l-0.016,0.315l-0.018,0.314l-0.021,0.313l-0.024,0.312l-0.026,0.311l-0.028,0.31l-0.031,0.31l-0.033,0.308l-0.036,0.307l-0.038,0.307l-0.04,0.305l-0.042,0.305l-0.044,0.304l-0.046,0.303l-0.049,0.302l-0.05,0.301l-0.052,0.301l-0.054,0.3l-0.056,0.298l-0.058,0.299l-0.059,0.297l-0.061,0.297l-0.062,0.295l-0.05,0.228l0.074,0.06l0.165,0.137l0.163,0.138l0.163,0.139l0.161,0.139l0.161,0.14l0.16,0.141l0.158,0.141l0.158,0.143l0.156,0.143l0.156,0.143l0.154,0.145l0.154,0.145l0.152,0.146l0.151,0.146l0.15,0.148l0.149,0.147l0.149,0.149l0.147,0.149l0.145,0.15l0.145,0.151l0.144,0.151l0.142,0.153l0.142,0.152l0.14,0.154l0.14,0.154l0.138,0.155l0.137,0.155l0.136,0.156l0.134,0.157l0.134,0.157l0.132,0.158l0.132,0.159l0.13,0.159l0.129,0.16l0.127,0.161l0.127,0.161l0.125,0.162l0.124,0.163l0.123,0.163l0.122,0.164l0.121,0.164l0.119,0.165l0.118,0.166l0.117,0.166l0.116,0.167l0.114,0.167l0.113,0.168l0.112,0.169l0.111,0.169l0.109,0.17l0.109,0.171l0.106,0.171l0.106,0.171l0.104,0.173l0.103,0.173l0.102,0.173l0.1,0.174l0.1,0.174l0.097,0.175l0.097,0.176l0.095,0.176l0.094,0.177l0.092,0.177l0.091,0.178l0.09,0.179l0.088,0.178l0.087,0.18l0.086,0.18l0.084,0.18l0.083,0.181l0.082,0.182l0.08,0.182l0.079,0.183l0.077,0.183l0.076,0.183l0.074,0.184l0.073,0.185l0.072,0.185l0.07,0.186l0.069,0.186l0.067,0.186l0.066,0.187l0.064,0.188l0.063,0.188l0.061,0.188l0.06,0.189l0.059,0.189l0.056,0.19l0.056,0.19l0.054,0.191l0.052,0.191l0.051,0.192l0.049,0.191l0.048,0.193l0.046,0.193l0.045,0.193l0.043,0.193l0.042,0.194l0.04,0.195l0.039,0.195l0.037,0.195l0.035,0.195l0.034,0.196l0.032,0.197l0.03,0.196l0.029,0.197l0.028,0.198l0.025,0.198l0.024,0.198l0.023,0.198l0.021,0.199l0.019,0.199l0.018,0.2l0.016,0.199l0.014,0.201l0.012,0.2l0.011,0.201l0.01,0.201l0.007,0.201l0.006,0.202l0.004,0.201l0.003,0.203l0.001,0.202l-0.001,0.209l-0.003,0.208l-0.004,0.208l-0.006,0.208l-0.008,0.207l-0.01,0.208l-0.011,0.206l-0.014,0.207l-0.015,0.206l-0.016,0.206l-0.019,0.205l-0.02,0.206l-0.021,0.204l-0.024,0.205l-0.025,0.204l-0.027,0.204l-0.029,0.203l-0.03,0.203l-0.032,0.203l-0.034,0.202l-0.035,0.202l-0.037,0.201l-0.038,0.201l-0.041,0.201l-0.042,0.2l-0.043,0.199l-0.045,0.2l-0.047,0.199l-0.048,0.198l-0.05,0.198l-0.052,0.198l-0.053,0.197l-0.055,0.196l-0.057,0.196l-0.058,0.196l-0.059,0.195l-0.061,0.195l-0.063,0.194l-0.064,0.194l-0.066,0.193l-0.067,0.193l-0.069,0.192l-0.071,0.192l-0.072,0.192l-0.073,0.19l-0.075,0.19l-0.076,0.19l-0.078,0.189l-0.08,0.189l-0.081,0.188l-0.082,0.188l-0.084,0.187l-0.086,0.186l-0.086,0.186l-0.089,0.185l-0.089,0.185l-0.092,0.184l-0.092,0.184l-0.094,0.183l-0.096,0.182l-0.097,0.182l-0.098,0.182l-0.1,0.18l-0.101,0.18l-0.102,0.18l-0.104,0.179l-0.105,0.178l-0.107,0.178l-0.108,0.177l-0.109,0.176l-0.111,0.176l-0.112,0.175l-0.114,0.175l-0.114,0.174l-0.116,0.173l-0.118,0.173l-0.119,0.172l-0.12,0.171l-0.121,0.171l-0.123,0.17l-0.123,0.169l-0.126,0.169l-0.126,0.168l-0.128,0.168l-0.129,0.166l-0.13,0.166l-0.132,0.166l-0.133,0.164l-0.134,0.164l-0.135,0.164l-0.137,0.162l-0.137,0.162l-0.14,0.161l-0.14,0.161l-0.141,0.16l-0.143,0.159l-0.144,0.158l-0.145,0.158l-0.146,0.157l-0.147,0.156l-0.149,0.155l-0.15,0.155l-0.151,0.154l-0.152,0.153l-0.153,0.153l-0.154,0.152l-0.156,0.151l-0.157,0.15l-0.158,0.149l-0.158,0.149l-0.161,0.148l-0.161,0.147l-0.162,0.147l-0.163,0.146l-0.165,0.144l-0.166,0.145l-0.166,0.143l-0.168,0.143l-0.169,0.141l-0.17,0.141l-0.171,0.141l-0.172,0.139l-0.173,0.139l-0.174,0.137l-0.175,0.137l-0.177,0.136l-0.177,0.136l-0.178,0.134l-0.18,0.134l-0.18,0.133l-0.182,0.132l-0.182,0.131l-0.183,0.131l-0.185,0.129l-0.185,0.129l-0.187,0.128l-0.187,0.127l-0.188,0.126l-0.19,0.125l-0.19,0.125l-0.191,0.123l-0.192,0.123l-0.194,0.122l-0.194,0.121l-0.195,0.12l-0.196,0.119l-0.197,0.119l-0.198,0.117l-0.198,0.117l-0.2,0.115l-0.201,0.115l-0.201,0.114l-0.203,0.113l-0.203,0.112l-0.204,0.111l-0.205,0.111l-0.206,0.109l-0.207,0.108l-0.208,0.108l-0.208,0.106l-0.21,0.106l-0.21,0.105l-0.211,0.103l-0.212,0.103l-0.213,0.102l-0.214,0.101l-0.214,0.1l-0.215,0.099l-0.217,0.098l-0.216,0.097l-0.218,0.096l-0.219,0.095l-0.219,0.095l-0.22,0.093l-0.221,0.092l-0.222,0.091l-0.222,0.091l-0.224,0.089l-0.224,0.088l-0.225,0.087l-0.225,0.087l-0.227,0.085l-0.227,0.084l-0.227,0.083l-0.229,0.083l-0.229,0.081l-0.23,0.08l-0.231,0.079l-0.231,0.078l-0.233,0.077l-0.232,0.076l-0.234,0.075l-0.234,0.074l-0.235,0.073l-0.236,0.072l-0.236,0.071l-0.237,0.07l-0.238,0.068l-0.238,0.068l-0.239,0.067l-0.24,0.065l-0.24,0.064l-0.241,0.064l-0.242,0.062l-0.242,0.061l-0.243,0.06l-0.244,0.059l-0.244,0.058l-0.245,0.057l-0.245,0.055l-0.246,0.055l-0.247,0.053l-0.247,0.053l-0.248,0.051l-0.248,0.05l-0.249,0.049l-0.249,0.047l-0.25,0.047l-0.251,0.046l-0.251,0.044l-0.252,0.043l-0.252,0.042l-0.253,0.041l-0.254,0.04l-0.254,0.039l-0.254,0.037l-0.255,0.036l-0.256,0.035l-0.256,0.034l-0.256,0.033l-0.257,0.031l-0.258,0.031l-0.258,0.029l-0.259,0.028l-0.259,0.026l-0.259,0.026l-0.26,0.024l-0.261,0.023l-0.261,0.022l-0.261,0.021l-0.262,0.019l-0.262,0.019l-0.263,0.017l-0.263,0.015l-0.264,0.015l-0.264,0.013l-0.264,0.012l-0.265,0.011l-0.266,0.01l-0.265,0.008l-0.266,0.007l-0.267,0.006l-0.267,0.004l-0.267,0.003l-0.268,0.002l-0.266,0.001l-60.697,0ZM88.175,152.344l60.689,0l0.255,0l0.253,-0.002l0.253,-0.003l0.252,-0.005l0.252,-0.005l0.251,-0.007l0.251,-0.007l0.251,-0.009l0.25,-0.011l0.25,-0.011l0.249,-0.012l0.249,-0.014l0.249,-0.015l0.248,-0.016l0.248,-0.017l0.247,-0.019l0.247,-0.019l0.246,-0.021l0.246,-0.022l0.245,-0.023l0.245,-0.024l0.244,-0.025l0.244,-0.026l0.244,-0.028l0.243,-0.028l0.242,-0.03l0.242,-0.031l0.242,-0.032l0.241,-0.033l0.24,-0.034l0.24,-0.035l0.239,-0.037l0.239,-0.037l0.238,-0.039l0.238,-0.039l0.237,-0.041l0.237,-0.042l0.236,-0.043l0.236,-0.044l0.235,-0.045l0.234,-0.046l0.234,-0.047l0.233,-0.048l0.233,-0.049l0.232,-0.051l0.232,-0.051l0.23,-0.052l0.231,-0.054l0.229,-0.054l0.229,-0.055l0.229,-0.057l0.228,-0.057l0.227,-0.059l0.226,-0.059l0.226,-0.061l0.225,-0.061l0.225,-0.063l0.224,-0.064l0.223,-0.064l0.223,-0.066l0.222,-0.066l0.221,-0.068l0.22,-0.068l0.22,-0.069l0.22,-0.071l0.218,-0.071l0.218,-0.072l0.217,-0.074l0.216,-0.074l0.216,-0.075l0.215,-0.076l0.214,-0.077l0.213,-0.078l0.213,-0.079l0.212,-0.08l0.211,-0.081l0.211,-0.081l0.209,-0.083l0.209,-0.084l0.209,-0.084l0.207,-0.085l0.207,-0.087l0.205,-0.087l0.205,-0.088l0.205,-0.089l0.203,-0.09l0.203,-0.09l0.202,-0.092l0.201,-0.092l0.2,-0.094l0.199,-0.094l0.199,-0.095l0.197,-0.096l0.197,-0.096l0.196,-0.098l0.195,-0.098l0.195,-0.1l0.193,-0.1l0.193,-0.101l0.192,-0.102l0.19,-0.102l0.19,-0.104l0.189,-0.104l0.189,-0.105l0.187,-0.106l0.186,-0.106l0.186,-0.108l0.184,-0.108l0.184,-0.109l0.183,-0.11l0.182,-0.111l0.181,-0.111l0.18,-0.112l0.179,-0.113l0.178,-0.114l0.177,-0.114l0.176,-0.115l0.175,-0.116l0.174,-0.117l0.174,-0.118l0.172,-0.118l0.171,-0.119l0.171,-0.119l0.169,-0.121l0.168,-0.121l0.168,-0.122l0.166,-0.122l0.165,-0.124l0.165,-0.124l0.163,-0.124l0.162,-0.126l0.162,-0.126l0.16,-0.127l0.159,-0.127l0.158,-0.128l0.157,-0.129l0.156,-0.129l0.155,-0.131l0.154,-0.13l0.153,-0.132l0.152,-0.132l0.151,-0.133l0.15,-0.133l0.148,-0.134l0.148,-0.135l0.146,-0.135l0.145,-0.136l0.145,-0.137l0.143,-0.137l0.142,-0.138l0.141,-0.139l0.139,-0.139l0.139,-0.139l0.137,-0.141l0.137,-0.14l0.135,-0.142l0.134,-0.142l0.133,-0.143l0.132,-0.143l0.13,-0.144l0.13,-0.144l0.128,-0.145l0.127,-0.146l0.126,-0.146l0.125,-0.146l0.124,-0.147l0.122,-0.148l0.121,-0.148l0.12,-0.149l0.119,-0.149l0.118,-0.15l0.116,-0.151l0.115,-0.151l0.114,-0.151l0.113,-0.152l0.112,-0.153l0.11,-0.152l0.109,-0.154l0.108,-0.154l0.106,-0.154l0.106,-0.155l0.104,-0.156l0.103,-0.156l0.101,-0.156l0.101,-0.157l0.099,-0.157l0.098,-0.158l0.096,-0.158l0.095,-0.159l0.094,-0.159l0.093,-0.16l0.091,-0.16l0.091,-0.16l0.088,-0.161l0.088,-0.162l0.086,-0.162l0.085,-0.162l0.084,-0.162l0.082,-0.164l0.081,-0.163l0.079,-0.164l0.079,-0.164l0.077,-0.165l0.075,-0.165l0.075,-0.166l0.072,-0.166l0.072,-0.166l0.07,-0.167l0.069,-0.167l0.068,-0.168l0.066,-0.168l0.065,-0.168l0.063,-0.168l0.062,-0.169l0.061,-0.17l0.059,-0.17l0.058,-0.17l0.057,-0.17l0.055,-0.171l0.054,-0.171l0.052,-0.172l0.051,-0.172l0.049,-0.172l0.049,-0.173l0.046,-0.173l0.046,-0.173l0.043,-0.174l0.043,-0.174l0.041,-0.174l0.039,-0.175l0.039,-0.175l0.036,-0.175l0.036,-0.175l0.033,-0.176l0.033,-0.177l0.031,-0.176l0.029,-0.177l0.028,-0.177l0.026,-0.178l0.025,-0.178l0.024,-0.178l0.022,-0.178l0.021,-0.179l0.019,-0.179l0.017,-0.179l0.016,-0.18l0.015,-0.18l0.013,-0.18l0.011,-0.18l0.01,-0.181l0.009,-0.181l0.007,-0.182l0.005,-0.181l0.004,-0.182l0.002,-0.183l0.001,-0.182l-0.001,-0.177l-0.002,-0.176l-0.004,-0.176l-0.005,-0.176l-0.006,-0.175l-0.008,-0.176l-0.01,-0.175l-0.011,-0.175l-0.012,-0.174l-0.014,-0.174l-0.016,-0.174l-0.016,-0.174l-0.019,-0.173l-0.019,-0.173l-0.021,-0.173l-0.023,-0.173l-0.024,-0.172l-0.025,-0.172l-0.027,-0.172l-0.028,-0.171l-0.029,-0.171l-0.031,-0.171l-0.032,-0.171l-0.034,-0.17l-0.035,-0.17l-0.036,-0.17l-0.038,-0.169l-0.039,-0.169l-0.041,-0.169l-0.042,-0.168l-0.043,-0.168l-0.044,-0.168l-0.046,-0.168l-0.048,-0.167l-0.048,-0.167l-0.05,-0.166l-0.051,-0.166l-0.053,-0.166l-0.054,-0.166l-0.055,-0.165l-0.057,-0.165l-0.058,-0.164l-0.059,-0.165l-0.06,-0.164l-0.062,-0.163l-0.063,-0.163l-0.065,-0.163l-0.065,-0.162l-0.067,-0.163l-0.069,-0.161l-0.069,-0.162l-0.071,-0.161l-0.072,-0.16l-0.074,-0.161l-0.074,-0.16l-0.076,-0.159l-0.077,-0.159l-0.079,-0.159l-0.079,-0.158l-0.081,-0.158l-0.083,-0.158l-0.083,-0.157l-0.085,-0.157l-0.086,-0.156l-0.087,-0.156l-0.088,-0.156l-0.09,-0.155l-0.09,-0.155l-0.092,-0.154l-0.094,-0.154l-0.094,-0.154l-0.096,-0.153l-0.096,-0.152l-0.098,-0.152l-0.1,-0.152l-0.1,-0.151l-0.102,-0.151l-0.102,-0.151l-0.104,-0.15l-0.105,-0.149l-0.107,-0.149l-0.107,-0.149l-0.109,-0.148l-0.109,-0.147l-0.111,-0.147l-0.112,-0.147l-0.113,-0.146l-0.115,-0.146l-0.115,-0.145l-0.117,-0.145l-0.117,-0.144l-0.119,-0.143l-0.12,-0.143l-0.121,-0.143l-0.122,-0.142l-0.123,-0.142l-0.125,-0.141l-0.125,-0.14l-0.127,-0.14l-0.127,-0.14l-0.129,-0.139l-0.13,-0.138l-0.131,-0.138l-0.132,-0.137l-0.133,-0.137l-0.134,-0.136l-0.135,-0.136l-0.136,-0.135l-0.137,-0.134l-0.138,-0.134l-0.139,-0.134l-0.141,-0.132l-0.141,-0.132l-0.142,-0.132l-0.144,-0.131l-0.144,-0.13l-0.146,-0.13l-0.146,-0.129l-0.147,-0.129l-0.149,-0.128l-0.149,-0.127l-0.15,-0.127l-0.152,-0.126l-0.152,-0.125l-0.153,-0.125l-0.155,-0.124l-0.155,-0.124l-0.159,-0.125l-0.014,-0.013l-0.016,-0.011l-0.087,-0.087l-0.089,-0.084l-0.011,-0.016l-0.014,-0.013l-0.069,-0.101l-0.072,-0.1l-0.009,-0.017l-0.01,-0.016l-0.05,-0.112l-0.053,-0.111l-0.005,-0.019l-0.007,-0.017l-0.029,-0.12l-0.031,-0.119l-0.001,-0.018l-0.005,-0.019l-0.006,-0.123l-0.009,-0.122l0.003,-0.019l-0.001,-0.019l0.016,-0.122l0.014,-0.122l0.006,-0.018l0.002,-0.019l0.066,-0.282l0.064,-0.278l0.062,-0.279l0.06,-0.279l0.059,-0.279l0.057,-0.28l0.056,-0.279l0.054,-0.28l0.053,-0.28l0.05,-0.281l0.049,-0.281l0.047,-0.281l0.045,-0.281l0.043,-0.282l0.041,-0.282l0.039,-0.283l0.037,-0.283l0.035,-0.283l0.033,-0.284l0.031,-0.285l0.028,-0.285l0.026,-0.285l0.024,-0.286l0.022,-0.287l0.019,-0.287l0.017,-0.287l0.014,-0.289l0.012,-0.289l0.009,-0.289l0.007,-0.29l0.004,-0.291l0.001,-0.293l-0.001,-0.251l-0.002,-0.251l-0.004,-0.252l-0.006,-0.25l-0.007,-0.251l-0.008,-0.25l-0.011,-0.249l-0.012,-0.249l-0.013,-0.249l-0.015,-0.248l-0.016,-0.248l-0.018,-0.247l-0.02,-0.247l-0.021,-0.247l-0.023,-0.246l-0.024,-0.246l-0.025,-0.245l-0.028,-0.244l-0.028,-0.245l-0.031,-0.243l-0.031,-0.244l-0.033,-0.242l-0.035,-0.243l-0.036,-0.242l-0.038,-0.241l-0.039,-0.241l-0.041,-0.24l-0.042,-0.24l-0.043,-0.239l-0.045,-0.239l-0.047,-0.238l-0.047,-0.238l-0.05,-0.237l-0.05,-0.237l-0.053,-0.236l-0.053,-0.236l-0.055,-0.235l-0.057,-0.234l-0.057,-0.234l-0.06,-0.234l-0.06,-0.233l-0.062,-0.232l-0.064,-0.231l-0.065,-0.232l-0.066,-0.23l-0.068,-0.23l-0.069,-0.229l-0.07,-0.229l-0.072,-0.228l-0.073,-0.228l-0.074,-0.227l-0.076,-0.226l-0.077,-0.226l-0.079,-0.225l-0.079,-0.224l-0.081,-0.224l-0.083,-0.223l-0.084,-0.223l-0.085,-0.222l-0.086,-0.221l-0.088,-0.221l-0.089,-0.219l-0.09,-0.22l-0.092,-0.218l-0.093,-0.218l-0.094,-0.217l-0.096,-0.217l-0.096,-0.216l-0.098,-0.215l-0.1,-0.214l-0.1,-0.214l-0.102,-0.213l-0.103,-0.212l-0.105,-0.212l-0.105,-0.211l-0.107,-0.21l-0.108,-0.209l-0.109,-0.209l-0.111,-0.208l-0.111,-0.207l-0.113,-0.207l-0.114,-0.205l-0.116,-0.205l-0.116,-0.204l-0.118,-0.204l-0.119,-0.202l-0.12,-0.202l-0.121,-0.201l-0.123,-0.2l-0.123,-0.2l-0.125,-0.198l-0.126,-0.198l-0.127,-0.197l-0.129,-0.197l-0.129,-0.195l-0.131,-0.195l-0.131,-0.193l-0.133,-0.193l-0.134,-0.192l-0.135,-0.191l-0.136,-0.191l-0.138,-0.189l-0.138,-0.189l-0.14,-0.188l-0.14,-0.187l-0.142,-0.186l-0.143,-0.185l-0.144,-0.184l-0.145,-0.184l-0.146,-0.182l-0.147,-0.182l-0.148,-0.18l-0.15,-0.18l-0.15,-0.179l-0.151,-0.178l-0.153,-0.177l-0.153,-0.176l-0.155,-0.176l-0.155,-0.174l-0.157,-0.173l-0.157,-0.172l-0.159,-0.172l-0.16,-0.17l-0.16,-0.17l-0.162,-0.168l-0.162,-0.168l-0.164,-0.167l-0.165,-0.165l-0.165,-0.165l-0.167,-0.164l-0.167,-0.162l-0.169,-0.162l-0.169,-0.16l-0.171,-0.16l-0.171,-0.159l-0.173,-0.157l-0.173,-0.157l-0.174,-0.156l-0.175,-0.154l-0.177,-0.154l-0.177,-0.152l-0.178,-0.151l-0.178,-0.151l-0.18,-0.149l-0.181,-0.148l-0.181,-0.147l-0.183,-0.147l-0.183,-0.145l-0.185,-0.144l-0.185,-0.142l-0.186,-0.142l-0.187,-0.141l-0.188,-0.139l-0.188,-0.139l-0.19,-0.137l-0.19,-0.136l-0.191,-0.136l-0.192,-0.134l-0.193,-0.132l-0.194,-0.132l-0.195,-0.131l-0.195,-0.129l-0.196,-0.129l-0.197,-0.127l-0.198,-0.126l-0.199,-0.125l-0.199,-0.123l-0.2,-0.123l-0.201,-0.121l-0.202,-0.12l-0.203,-0.119l-0.203,-0.118l-0.204,-0.116l-0.205,-0.116l-0.206,-0.114l-0.206,-0.113l-0.207,-0.112l-0.208,-0.11l-0.209,-0.109l-0.209,-0.109l-0.211,-0.106l-0.211,-0.106l-0.211,-0.104l-0.212,-0.103l-0.214,-0.102l-0.213,-0.101l-0.215,-0.099l-0.215,-0.098l-0.216,-0.097l-0.216,-0.096l-0.218,-0.094l-0.217,-0.093l-0.219,-0.091l-0.219,-0.091l-0.22,-0.089l-0.221,-0.088l-0.221,-0.086l-0.222,-0.085l-0.223,-0.084l-0.223,-0.083l-0.224,-0.081l-0.224,-0.08l-0.225,-0.078l-0.226,-0.077l-0.226,-0.076l-0.227,-0.074l-0.228,-0.074l-0.228,-0.071l-0.229,-0.071l-0.229,-0.069l-0.23,-0.067l-0.231,-0.067l-0.231,-0.064l-0.232,-0.064l-0.232,-0.062l-0.233,-0.061l-0.233,-0.059l-0.234,-0.058l-0.235,-0.056l-0.235,-0.055l-0.236,-0.054l-0.236,-0.052l-0.237,-0.051l-0.237,-0.049l-0.238,-0.048l-0.238,-0.047l-0.239,-0.045l-0.24,-0.043l-0.239,-0.042l-0.241,-0.041l-0.241,-0.039l-0.241,-0.038l-0.242,-0.036l-0.242,-0.034l-0.243,-0.034l-0.244,-0.031l-0.244,-0.031l-0.244,-0.028l-0.245,-0.027l-0.245,-0.026l-0.246,-0.024l-0.246,-0.023l-0.246,-0.021l-0.247,-0.02l-0.248,-0.018l-0.248,-0.016l-0.248,-0.015l-0.249,-0.013l-0.249,-0.012l-0.25,-0.011l-0.25,-0.008l-0.25,-0.007l-0.251,-0.006l-0.251,-0.004l-0.252,-0.002l-0.253,-0.001l-0.176,0l-0.177,0.001l-0.177,0.002l-0.176,0.003l-0.177,0.004l-0.176,0.004l-0.176,0.005l-0.176,0.006l-0.175,0.007l-0.175,0.008l-0.175,0.008l-0.175,0.009l-0.175,0.01l-0.174,0.01l-0.174,0.012l-0.174,0.012l-0.174,0.013l-0.173,0.014l-0.174,0.014l-0.173,0.015l-0.172,0.016l-0.173,0.017l-0.172,0.018l-0.172,0.018l-0.172,0.019l-0.172,0.02l-0.171,0.02l-0.171,0.022l-0.171,0.022l-0.17,0.022l-0.171,0.024l-0.17,0.024l-0.17,0.025l-0.169,0.026l-0.17,0.027l-0.169,0.027l-0.169,0.028l-0.168,0.029l-0.168,0.029l-0.169,0.03l-0.167,0.031l-0.168,0.032l-0.167,0.032l-0.167,0.033l-0.167,0.034l-0.166,0.035l-0.166,0.035l-0.166,0.036l-0.166,0.036l-0.165,0.038l-0.166,0.038l-0.164,0.039l-0.165,0.039l-0.164,0.04l-0.164,0.041l-0.164,0.042l-0.163,0.042l-0.163,0.043l-0.163,0.044l-0.163,0.045l-0.162,0.045l-0.162,0.045l-0.162,0.047l-0.161,0.047l-0.161,0.048l-0.161,0.049l-0.16,0.049l-0.16,0.05l-0.16,0.05l-0.16,0.052l-0.159,0.052l-0.159,0.052l-0.159,0.054l-0.158,0.053l-0.158,0.055l-0.158,0.055l-0.157,0.056l-0.157,0.057l-0.157,0.057l-0.156,0.058l-0.156,0.059l-0.156,0.059l-0.156,0.06l-0.155,0.061l-0.155,0.061l-0.154,0.062l-0.154,0.063l-0.154,0.063l-0.154,0.064l-0.153,0.064l-0.153,0.065l-0.151,0.065l-0.305,0.134l-0.303,0.136l-0.301,0.139l-0.3,0.141l-0.298,0.144l-0.297,0.146l-0.295,0.148l-0.295,0.151l-0.292,0.154l-0.291,0.155l-0.29,0.159l-0.288,0.16l-0.287,0.163l-0.285,0.166l-0.284,0.168l-0.282,0.17l-0.281,0.172l-0.279,0.175l-0.277,0.177l-0.276,0.18l-0.274,0.181l-0.273,0.184l-0.271,0.187l-0.269,0.188l-0.268,0.191l-0.266,0.193l-0.264,0.195l-0.262,0.197l-0.261,0.2l-0.26,0.201l-0.257,0.204l-0.256,0.206l-0.254,0.208l-0.252,0.21l-0.25,0.212l-0.249,0.214l-0.247,0.217l-0.245,0.218l-0.243,0.221l-0.241,0.222l-0.24,0.224l-0.237,0.227l-0.236,0.228l-0.234,0.231l-0.232,0.232l-0.23,0.234l-0.228,0.236l-0.226,0.238l-0.224,0.24l-0.222,0.242l-0.22,0.244l-0.218,0.245l-0.216,0.248l-0.214,0.249l-0.212,0.251l-0.21,0.253l-0.208,0.254l-0.206,0.256l-0.204,0.258l-0.202,0.26l-0.199,0.262l-0.198,0.263l-0.195,0.265l-0.193,0.267l-0.191,0.268l-0.189,0.27l-0.187,0.271l-0.184,0.274l-0.182,0.274l-0.18,0.277l-0.178,0.278l-0.176,0.279l-0.173,0.281l-0.171,0.283l-0.169,0.284l-0.166,0.286l-0.164,0.287l-0.162,0.288l-0.159,0.29l-0.157,0.292l-0.155,0.293l-0.155,0.3l-0.153,0.239l-0.195,0.207l-0.229,0.168l-0.257,0.122l-0.274,0.073l-0.284,0.022l-0.282,-0.032l-0.272,-0.082l-0.135,-0.055l-0.132,-0.053l-0.132,-0.053l-0.133,-0.051l-0.133,-0.051l-0.133,-0.05l-0.133,-0.049l-0.134,-0.048l-0.134,-0.048l-0.135,-0.047l-0.135,-0.046l-0.135,-0.046l-0.135,-0.044l-0.136,-0.044l-0.136,-0.043l-0.137,-0.042l-0.137,-0.042l-0.137,-0.04l-0.137,-0.04l-0.138,-0.039l-0.138,-0.039l-0.138,-0.037l-0.139,-0.037l-0.139,-0.036l-0.139,-0.035l-0.14,-0.034l-0.14,-0.033l-0.14,-0.033l-0.14,-0.032l-0.141,-0.031l-0.141,-0.03l-0.142,-0.029l-0.141,-0.028l-0.142,-0.028l-0.143,-0.027l-0.142,-0.026l-0.143,-0.025l-0.143,-0.024l-0.144,-0.023l-0.144,-0.022l-0.144,-0.022l-0.144,-0.021l-0.145,-0.019l-0.144,-0.019l-0.146,-0.018l-0.145,-0.017l-0.146,-0.017l-0.146,-0.015l-0.146,-0.014l-0.147,-0.014l-0.146,-0.012l-0.148,-0.012l-0.147,-0.011l-0.148,-0.01l-0.148,-0.009l-0.148,-0.008l-0.148,-0.007l-0.149,-0.006l-0.149,-0.005l-0.149,-0.005l-0.15,-0.003l-0.15,-0.002l-0.15,-0.002l-0.15,0l-0.15,0l-0.151,0.002l-0.15,0.002l-0.149,0.003l-0.15,0.005l-0.149,0.005l-0.149,0.006l-0.149,0.007l-0.148,0.007l-0.148,0.009l-0.148,0.01l-0.148,0.011l-0.148,0.011l-0.147,0.012l-0.147,0.014l-0.146,0.014l-0.147,0.015l-0.146,0.016l-0.145,0.017l-0.146,0.018l-0.145,0.018l-0.145,0.02l-0.145,0.02l-0.144,0.021l-0.144,0.022l-0.144,0.023l-0.143,0.024l-0.143,0.025l-0.143,0.025l-0.143,0.027l-0.142,0.027l-0.142,0.028l-0.142,0.029l-0.141,0.03l-0.141,0.031l-0.141,0.031l-0.14,0.032l-0.14,0.034l-0.14,0.034l-0.139,0.034l-0.139,0.036l-0.139,0.036l-0.138,0.038l-0.138,0.038l-0.138,0.039l-0.137,0.039l-0.137,0.041l-0.137,0.041l-0.136,0.042l-0.136,0.043l-0.135,0.044l-0.136,0.045l-0.134,0.045l-0.135,0.046l-0.134,0.047l-0.134,0.048l-0.133,0.048l-0.133,0.049l-0.133,0.05l-0.132,0.051l-0.132,0.052l-0.131,0.052l-0.131,0.053l-0.131,0.054l-0.13,0.055l-0.13,0.055l-0.13,0.056l-0.129,0.057l-0.129,0.058l-0.128,0.058l-0.128,0.059l-0.127,0.06l-0.127,0.061l-0.127,0.061l-0.126,0.062l-0.126,0.063l-0.125,0.063l-0.125,0.065l-0.125,0.065l-0.124,0.065l-0.124,0.067l-0.123,0.067l-0.123,0.068l-0.122,0.068l-0.122,0.069l-0.121,0.07l-0.121,0.071l-0.121,0.071l-0.12,0.072l-0.119,0.073l-0.119,0.074l-0.119,0.074l-0.118,0.075l-0.118,0.075l-0.117,0.076l-0.117,0.077l-0.116,0.077l-0.116,0.079l-0.116,0.078l-0.114,0.08l-0.115,0.08l-0.114,0.081l-0.113,0.081l-0.113,0.083l-0.112,0.082l-0.112,0.084l-0.112,0.084l-0.11,0.084l-0.111,0.086l-0.11,0.086l-0.109,0.086l-0.109,0.088l-0.108,0.088l-0.108,0.088l-0.107,0.089l-0.107,0.09l-0.106,0.09l-0.105,0.091l-0.105,0.092l-0.105,0.092l-0.104,0.093l-0.103,0.093l-0.103,0.094l-0.103,0.095l-0.101,0.095l-0.102,0.096l-0.1,0.096l-0.1,0.097l-0.1,0.098l-0.099,0.098l-0.098,0.099l-0.098,0.099l-0.097,0.1l-0.097,0.1l-0.096,0.101l-0.096,0.102l-0.095,0.102l-0.094,0.103l-0.094,0.103l-0.093,0.104l-0.092,0.104l-0.092,0.105l-0.091,0.105l-0.091,0.106l-0.09,0.107l-0.09,0.107l-0.089,0.107l-0.088,0.108l-0.087,0.109l-0.087,0.109l-0.087,0.11l-0.086,0.11l-0.085,0.111l-0.084,0.111l-0.084,0.112l-0.083,0.112l-0.083,0.113l-0.082,0.113l-0.081,0.114l-0.08,0.114l-0.08,0.114l-0.08,0.116l-0.078,0.115l-0.078,0.117l-0.078,0.116l-0.076,0.117l-0.076,0.118l-0.075,0.118l-0.075,0.119l-0.074,0.119l-0.073,0.119l-0.073,0.12l-0.072,0.121l-0.071,0.12l-0.07,0.122l-0.07,0.122l-0.069,0.122l-0.069,0.122l-0.067,0.124l-0.067,0.123l-0.067,0.124l-0.065,0.125l-0.065,0.124l-0.064,0.126l-0.064,0.125l-0.062,0.127l-0.062,0.126l-0.062,0.127l-0.06,0.127l-0.06,0.128l-0.059,0.128l-0.058,0.129l-0.058,0.129l-0.057,0.13l-0.056,0.129l-0.055,0.131l-0.055,0.13l-0.054,0.131l-0.053,0.132l-0.052,0.131l-0.052,0.132l-0.051,0.133l-0.05,0.133l-0.049,0.133l-0.048,0.134l-0.048,0.134l-0.047,0.134l-0.046,0.135l-0.046,0.135l-0.044,0.136l-0.044,0.135l-0.043,0.137l-0.042,0.136l-0.042,0.137l-0.04,0.137l-0.04,0.138l-0.039,0.138l-0.038,0.138l-0.038,0.138l-0.037,0.139l-0.035,0.14l-0.035,0.139l-0.034,0.14l-0.034,0.14l-0.032,0.141l-0.032,0.141l-0.031,0.141l-0.03,0.141l-0.029,0.142l-0.028,0.142l-0.028,0.142l-0.026,0.143l-0.026,0.143l-0.025,0.143l-0.024,0.144l-0.024,0.144l-0.022,0.144l-0.022,0.144l-0.02,0.145l-0.02,0.145l-0.019,0.145l-0.018,0.146l-0.017,0.146l-0.017,0.146l-0.015,0.146l-0.015,0.147l-0.013,0.146l-0.013,0.148l-0.012,0.147l-0.011,0.148l-0.01,0.148l-0.009,0.148l-0.009,0.148l-0.007,0.149l-0.006,0.149l-0.006,0.154l-0.037,0.283l-0.089,0.271l-0.138,0.251l-0.182,0.22l-0.219,0.183l-0.25,0.14l-0.277,0.122l-0.271,0.122l-0.27,0.124l-0.268,0.125l-0.267,0.126l-0.266,0.128l-0.264,0.13l-0.262,0.131l-0.261,0.132l-0.26,0.134l-0.258,0.136l-0.256,0.137l-0.255,0.138l-0.253,0.14l-0.252,0.141l-0.251,0.142l-0.248,0.144l-0.247,0.145l-0.246,0.147l-0.243,0.148l-0.243,0.15l-0.24,0.15l-0.239,0.153l-0.237,0.153l-0.235,0.155l-0.234,0.156l-0.232,0.157l-0.23,0.159l-0.229,0.16l-0.227,0.161l-0.225,0.163l-0.223,0.163l-0.222,0.165l-0.219,0.167l-0.218,0.167l-0.216,0.169l-0.214,0.17l-0.212,0.171l-0.211,0.172l-0.208,0.174l-0.207,0.174l-0.205,0.176l-0.203,0.177l-0.201,0.178l-0.199,0.179l-0.197,0.18l-0.195,0.182l-0.193,0.182l-0.191,0.184l-0.189,0.185l-0.187,0.185l-0.186,0.187l-0.183,0.188l-0.181,0.189l-0.179,0.19l-0.177,0.191l-0.174,0.192l-0.173,0.193l-0.171,0.194l-0.168,0.195l-0.167,0.196l-0.164,0.197l-0.162,0.198l-0.16,0.198l-0.158,0.2l-0.156,0.201l-0.153,0.201l-0.152,0.203l-0.149,0.203l-0.147,0.205l-0.144,0.205l-0.143,0.206l-0.14,0.207l-0.138,0.207l-0.135,0.209l-0.134,0.209l-0.131,0.211l-0.129,0.211l-0.126,0.212l-0.124,0.212l-0.122,0.214l-0.12,0.214l-0.117,0.215l-0.115,0.216l-0.112,0.216l-0.11,0.218l-0.108,0.218l-0.105,0.219l-0.103,0.219l-0.1,0.22l-0.098,0.221l-0.096,0.222l-0.093,0.222l-0.091,0.223l-0.088,0.224l-0.086,0.225l-0.083,0.225l-0.081,0.225l-0.078,0.227l-0.076,0.227l-0.073,0.228l-0.071,0.228l-0.068,0.229l-0.066,0.23l-0.063,0.23l-0.061,0.231l-0.058,0.231l-0.055,0.232l-0.053,0.233l-0.05,0.233l-0.047,0.234l-0.045,0.235l-0.043,0.235l-0.039,0.236l-0.037,0.236l-0.035,0.237l-0.031,0.237l-0.029,0.238l-0.026,0.239l-0.024,0.239l-0.021,0.239l-0.018,0.24l-0.015,0.241l-0.013,0.244l-0.005,0.118l-0.005,0.121l-0.003,0.121l-0.004,0.122l-0.002,0.121l-0.002,0.122l-0.001,0.121l0,0.121l0.001,0.183l0.002,0.183l0.004,0.182l0.005,0.181l0.007,0.182l0.009,0.181l0.01,0.18l0.011,0.181l0.013,0.18l0.015,0.18l0.016,0.18l0.017,0.179l0.02,0.179l0.02,0.179l0.022,0.178l0.024,0.178l0.025,0.178l0.026,0.178l0.028,0.177l0.03,0.177l0.031,0.176l0.032,0.176l0.034,0.176l0.035,0.176l0.037,0.175l0.038,0.175l0.04,0.175l0.041,0.174l0.042,0.174l0.044,0.174l0.045,0.173l0.047,0.173l0.048,0.172l0.05,0.173l0.051,0.172l0.052,0.171l0.054,0.171l0.055,0.171l0.057,0.171l0.058,0.17l0.059,0.17l0.061,0.169l0.062,0.169l0.064,0.169l0.064,0.168l0.067,0.168l0.067,0.167l0.069,0.168l0.071,0.166l0.071,0.167l0.073,0.166l0.075,0.165l0.075,0.165l0.077,0.165l0.079,0.164l0.079,0.164l0.081,0.164l0.083,0.163l0.083,0.163l0.085,0.162l0.086,0.162l0.088,0.161l0.089,0.161l0.09,0.161l0.092,0.16l0.092,0.159l0.094,0.16l0.096,0.158l0.096,0.159l0.098,0.157l0.099,0.158l0.101,0.157l0.101,0.156l0.103,0.156l0.105,0.155l0.105,0.155l0.107,0.155l0.108,0.154l0.109,0.153l0.11,0.153l0.112,0.153l0.113,0.152l0.114,0.151l0.115,0.151l0.116,0.15l0.118,0.15l0.119,0.149l0.12,0.149l0.121,0.149l0.123,0.147l0.124,0.147l0.124,0.147l0.126,0.146l0.128,0.146l0.128,0.145l0.13,0.144l0.13,0.144l0.132,0.143l0.133,0.143l0.134,0.142l0.136,0.141l0.136,0.141l0.138,0.14l0.138,0.14l0.14,0.139l0.141,0.139l0.142,0.137l0.143,0.138l0.145,0.136l0.145,0.136l0.147,0.136l0.147,0.134l0.149,0.135l0.149,0.133l0.151,0.133l0.152,0.132l0.153,0.131l0.154,0.131l0.155,0.13l0.156,0.13l0.158,0.129l0.158,0.128l0.159,0.127l0.16,0.127l0.162,0.126l0.162,0.126l0.163,0.124l0.165,0.124l0.165,0.123l0.167,0.123l0.167,0.122l0.169,0.121l0.169,0.12l0.17,0.12l0.172,0.119l0.172,0.118l0.173,0.118l0.175,0.117l0.175,0.115l0.176,0.116l0.177,0.114l0.179,0.114l0.179,0.113l0.18,0.112l0.181,0.111l0.181,0.111l0.183,0.11l0.184,0.109l0.185,0.108l0.185,0.108l0.187,0.106l0.187,0.106l0.188,0.105l0.189,0.104l0.19,0.104l0.191,0.102l0.192,0.102l0.192,0.101l0.194,0.1l0.194,0.1l0.196,0.098l0.196,0.098l0.196,0.096l0.198,0.096l0.199,0.095l0.199,0.094l0.2,0.094l0.201,0.092l0.202,0.092l0.203,0.09l0.203,0.09l0.205,0.089l0.205,0.088l0.205,0.087l0.207,0.087l0.207,0.085l0.209,0.084l0.208,0.084l0.21,0.083l0.211,0.081l0.211,0.081l0.212,0.08l0.212,0.079l0.214,0.078l0.214,0.077l0.215,0.076l0.216,0.075l0.216,0.074l0.217,0.074l0.218,0.072l0.218,0.071l0.219,0.071l0.22,0.069l0.22,0.069l0.222,0.067l0.222,0.066l0.222,0.066l0.223,0.064l0.224,0.064l0.225,0.063l0.225,0.061l0.226,0.061l0.226,0.059l0.227,0.059l0.228,0.057l0.228,0.057l0.229,0.055l0.23,0.054l0.23,0.054l0.231,0.052l0.231,0.051l0.232,0.051l0.233,0.049l0.233,0.048l0.234,0.047l0.234,0.046l0.235,0.045l0.235,0.044l0.236,0.043l0.237,0.042l0.237,0.041l0.238,0.039l0.238,0.039l0.239,0.037l0.239,0.037l0.24,0.035l0.24,0.034l0.241,0.033l0.241,0.032l0.242,0.031l0.242,0.03l0.243,0.028l0.243,0.028l0.244,0.026l0.244,0.025l0.245,0.024l0.245,0.023l0.246,0.022l0.246,0.021l0.247,0.019l0.247,0.019l0.247,0.017l0.248,0.016l0.248,0.015l0.249,0.014l0.249,0.012l0.25,0.011l0.25,0.011l0.25,0.009l0.251,0.007l0.251,0.007l0.252,0.005l0.252,0.005l0.252,0.003l0.253,0.002l0.255,0Z" style="fill:url(#_Linear2);"/></g><defs><linearGradient id="_Linear1" x1="0" y1="0" x2="1" y2="0" gradientUnits="userSpaceOnUse" gradientTransform="matrix(-43.0178,-97.0485,97.0485,-43.0178,174.114,157.391)"><stop offset="0%" style="stop-color:#8db3d8;stop-opacity:1"/><stop offset="49%" style="stop-color:#aac6e2;stop-opacity:1"/><stop offset="100%" style="stop-color:#fff;stop-opacity:1"/><stop offset="100%" style="stop-color:#fff;stop-opacity:1"/></linearGradient><linearGradient id="_Linear2" x1="0" y1="0" x2="1" y2="0" gradientUnits="userSpaceOnUse" gradientTransform="matrix(141.615,0,0,101.153,47.712,103.305)"><stop offset="0%" style="stop-color:#b2c2d8;stop-opacity:1"/><stop offset="66%" style="stop-color:#a7bad3;stop-opacity:1"/><stop offset="85%" style="stop-color:#88a2c3;stop-opacity:1"/><stop offset="100%" style="stop-color:#6283af;stop-opacity:1"/><stop offset="100%" style="stop-color:#6283af;stop-opacity:1"/></linearGradient></defs></svg>