<?xml version="1.0" standalone="no"?><!DOCTYPE svg PUBLIC "-//W3C//DTD SVG 1.1//EN" "http://www.w3.org/Graphics/SVG/1.1/DTD/svg11.dtd"><svg width="100%" height="100%" viewBox="0 0 242 200" version="1.1" xmlns="http://www.w3.org/2000/svg" xmlns:xlink="http://www.w3.org/1999/xlink" xml:space="preserve" style="fill-rule:evenodd;clip-rule:evenodd;stroke-linecap:round;stroke-linejoin:round;stroke-miterlimit:1.41421;"><g id="Layer1"><path d="M146.414,39.468c5.15,0.002 9.937,2.654 12.67,7.018c7.222,11.533 21.539,34.396 28.943,46.221c2.887,4.61 3.043,10.425 0.407,15.184c-6.453,11.649 -18.616,33.607 -25.069,45.256c-2.636,4.759 -7.648,7.711 -13.088,7.709c-13.951,-0.005 -40.927,-0.015 -54.534,-0.02c-5.15,-0.002 -9.937,-2.654 -12.67,-7.018c-7.222,-11.533 -21.539,-34.396 -28.943,-46.221c-2.887,-4.61 -3.043,-10.425 -0.407,-15.183c6.453,-11.65 18.616,-33.608 25.069,-45.257c2.636,-4.759 7.648,-7.711 13.088,-7.709c13.951,0.005 40.927,0.015 54.534,0.02ZM120.76,142.969c-1.734,-0.006 -3.467,-0.099 -5.191,-0.297c-3.357,-0.386 -6.67,-1.151 -9.857,-2.279c-3.8,-1.345 -7.415,-3.205 -10.723,-5.508c-3.348,-2.332 -6.38,-5.116 -8.989,-8.253c-3.573,-4.294 -6.345,-9.243 -8.13,-14.537c-1.548,-4.589 -2.348,-9.422 -2.379,-14.264c-0.033,-5.293 0.861,-10.583 2.635,-15.569c1.915,-5.381 4.847,-10.389 8.606,-14.688c2.329,-2.664 4.971,-5.054 7.855,-7.104c0.39,-0.277 0.783,-0.548 1.181,-0.812c0.347,-0.231 0.697,-0.453 1.073,-0.635c1.101,-0.534 2.338,-0.772 3.558,-0.684c0.762,0.055 1.514,0.236 2.218,0.533c0.704,0.297 1.358,0.709 1.929,1.217c0.685,0.609 1.248,1.352 1.648,2.177c0.467,0.963 0.709,2.031 0.702,3.101c-0.004,0.611 -0.089,1.221 -0.251,1.81c-0.365,1.329 -1.127,2.536 -2.168,3.437c-0.116,0.1 -0.235,0.196 -0.356,0.288c-0.261,0.198 -0.539,0.373 -0.811,0.555c-0.205,0.139 -0.204,0.139 -0.408,0.28c-0.471,0.332 -0.934,0.673 -1.387,1.028c-1.026,0.805 -2.001,1.674 -2.919,2.601c-2.783,2.81 -5.023,6.148 -6.575,9.785c-1.05,2.462 -1.786,5.057 -2.182,7.705c-0.342,2.283 -0.432,4.604 -0.271,6.907c0.23,3.311 0.984,6.582 2.236,9.656c1.525,3.744 3.779,7.182 6.597,10.08c3.163,3.254 7.027,5.813 11.267,7.433c2.906,1.11 5.977,1.775 9.081,1.973c3.424,0.218 6.881,-0.123 10.191,-1.023c3.606,-0.981 7.025,-2.623 10.052,-4.813c3.262,-2.36 6.062,-5.346 8.208,-8.751c2.256,-3.58 3.775,-7.61 4.439,-11.79c0.712,-4.485 0.449,-9.116 -0.773,-13.49c-0.696,-2.488 -1.698,-4.889 -2.978,-7.133c-1.319,-2.313 -2.933,-4.458 -4.793,-6.366c-1.081,-1.109 -2.245,-2.138 -3.478,-3.075c-0.599,-0.454 -1.215,-0.884 -1.843,-1.297l-0.374,-0.264c-0.118,-0.097 -0.24,-0.189 -0.356,-0.289c-0.231,-0.2 -0.448,-0.415 -0.651,-0.643c-0.609,-0.685 -1.081,-1.49 -1.381,-2.356c-0.201,-0.578 -0.325,-1.181 -0.369,-1.79c-0.077,-1.067 0.095,-2.149 0.498,-3.14c0.403,-0.991 1.034,-1.885 1.834,-2.596c0.571,-0.508 1.225,-0.92 1.929,-1.217c0.845,-0.357 1.758,-0.545 2.675,-0.551c1.07,-0.007 2.138,0.235 3.101,0.702c0.483,0.234 0.927,0.535 1.371,0.835c0.395,0.267 0.786,0.54 1.173,0.82c2.866,2.072 5.488,4.48 7.795,7.161c3.725,4.328 6.619,9.358 8.492,14.753c1.73,4.982 2.583,10.258 2.516,15.531c-0.061,4.838 -0.891,9.66 -2.465,14.236c-1.906,5.538 -4.895,10.69 -8.747,15.101c-2.445,2.8 -5.232,5.3 -8.283,7.425c-3.08,2.145 -6.427,3.905 -9.941,5.223c-3.157,1.184 -6.447,2.01 -9.789,2.458c-1.617,0.217 -3.245,0.341 -4.876,0.388c-0.389,0.009 -0.777,0.014 -1.166,0.015ZM121.143,102.905c-0.279,-0.007 -0.349,-0.003 -0.627,-0.028c-0.522,-0.047 -1.038,-0.153 -1.536,-0.315c-0.997,-0.324 -1.917,-0.873 -2.674,-1.598c-0.758,-0.724 -1.348,-1.618 -1.716,-2.6c-0.221,-0.588 -0.362,-1.206 -0.419,-1.832c-0.025,-0.278 -0.022,-0.348 -0.028,-0.627l0,-36.209c0.003,-0.105 0.003,-0.21 0.007,-0.315c0.01,-0.209 0.028,-0.418 0.057,-0.625c0.112,-0.831 0.375,-1.64 0.772,-2.378c0.497,-0.923 1.202,-1.729 2.05,-2.346c0.763,-0.554 1.637,-0.951 2.557,-1.161c0.612,-0.14 1.243,-0.197 1.871,-0.168c0.733,0.032 1.459,0.181 2.146,0.439c0.784,0.294 1.515,0.731 2.146,1.282c0.71,0.621 1.292,1.385 1.701,2.234c0.318,0.661 0.531,1.371 0.63,2.098c0.028,0.207 0.047,0.416 0.056,0.625c0.005,0.105 0.005,0.21 0.007,0.315l0,36.209c-0.006,0.279 -0.003,0.349 -0.028,0.627c-0.056,0.626 -0.197,1.244 -0.418,1.832c-0.332,0.883 -0.843,1.696 -1.494,2.378c-0.725,0.758 -1.619,1.348 -2.6,1.716c-0.49,0.184 -1.001,0.313 -1.52,0.383c-0.277,0.038 -0.347,0.038 -0.626,0.057c-0.104,0.002 -0.209,0.004 -0.314,0.007Z" style="fill:url(#_Linear1);stroke-width:2px;stroke:#a1f359;"/></g><defs><linearGradient id="_Linear1" x1="0" y1="0" x2="1" y2="0" gradientUnits="userSpaceOnUse" gradientTransform="matrix(66.7613,95.677,-120.775,52.8876,85.85,53.1285)"><stop offset="0%" style="stop-color:#6dd80f;stop-opacity:1"/><stop offset="44%" style="stop-color:#67d00b;stop-opacity:1"/><stop offset="100%" style="stop-color:#59be00;stop-opacity:1"/><stop offset="100%" style="stop-color:#59be00;stop-opacity:1"/></linearGradient></defs></svg>